# Blender v2.78 (sub 0) OBJ File: 'basket.blend'
# www.blender.org
mtllib basket.mtl
o Cylinder
v 0.000000 -0.100000 -1.000000
v 0.000000 0.100000 -1.000000
v 0.195090 -0.100000 -0.980785
v 0.195090 0.100000 -0.980785
v 0.382683 -0.100000 -0.923880
v 0.382683 0.100000 -0.923880
v 0.555570 -0.100000 -0.831470
v 0.555570 0.100000 -0.831470
v 0.707107 -0.100000 -0.707107
v 0.707107 0.100000 -0.707107
v 0.831470 -0.100000 -0.555570
v 0.831470 0.100000 -0.555570
v 0.923880 -0.100000 -0.382683
v 0.923880 0.100000 -0.382683
v 0.980785 -0.100000 -0.195090
v 0.980785 0.100000 -0.195090
v 1.000000 -0.100000 -0.000000
v 1.000000 0.100000 -0.000000
v 0.980785 -0.100000 0.195090
v 0.980785 0.100000 0.195090
v 0.923880 -0.100000 0.382683
v 0.923880 0.100000 0.382683
v 0.831470 -0.100000 0.555570
v 0.831470 0.100000 0.555570
v 0.707107 -0.100000 0.707107
v 0.707107 0.100000 0.707107
v 0.555570 -0.100000 0.831470
v 0.555570 0.100000 0.831470
v 0.382683 -0.100000 0.923880
v 0.382683 0.100000 0.923880
v 0.195090 -0.100000 0.980785
v 0.195090 0.100000 0.980785
v -0.000000 -0.100000 1.000000
v -0.000000 0.100000 1.000000
v -0.195091 -0.100000 0.980785
v -0.195091 0.100000 0.980785
v -0.382684 -0.100000 0.923879
v -0.382684 0.100000 0.923879
v -0.555571 -0.100000 0.831469
v -0.555571 0.100000 0.831469
v -0.707107 -0.100000 0.707106
v -0.707107 0.100000 0.707106
v -0.831470 -0.100000 0.555570
v -0.831470 0.100000 0.555570
v -0.923880 -0.100000 0.382683
v -0.923880 0.100000 0.382683
v -0.980785 -0.100000 0.195089
v -0.980785 0.100000 0.195089
v -1.000000 -0.100000 -0.000001
v -1.000000 0.100000 -0.000001
v -0.980785 -0.100000 -0.195091
v -0.980785 0.100000 -0.195091
v -0.923879 -0.100000 -0.382684
v -0.923879 0.100000 -0.382684
v -0.831469 -0.100000 -0.555571
v -0.831469 0.100000 -0.555571
v -0.707106 -0.100000 -0.707108
v -0.707106 0.100000 -0.707108
v -0.555569 -0.100000 -0.831470
v -0.555569 0.100000 -0.831470
v -0.382682 -0.100000 -0.923880
v -0.382682 0.100000 -0.923880
v -0.195089 -0.100000 -0.980786
v -0.195089 0.100000 -0.980786
v 0.175581 0.100000 -0.882707
v 0.000000 0.100000 -0.900000
v 0.344415 0.100000 -0.831492
v 0.500013 0.100000 -0.748323
v 0.636396 0.100000 -0.636396
v 0.748323 0.100000 -0.500013
v 0.831492 0.100000 -0.344415
v 0.882707 0.100000 -0.175581
v 0.900000 0.100000 -0.000000
v 0.882707 0.100000 0.175581
v 0.831492 0.100000 0.344415
v 0.748323 0.100000 0.500013
v 0.636396 0.100000 0.636396
v 0.500013 0.100000 0.748323
v 0.344415 0.100000 0.831492
v 0.175581 0.100000 0.882707
v -0.000000 0.100000 0.900000
v -0.175582 0.100000 0.882707
v -0.344415 0.100000 0.831491
v -0.500014 0.100000 0.748322
v -0.636396 0.100000 0.636396
v -0.748323 0.100000 0.500013
v -0.831492 0.100000 0.344414
v -0.882707 0.100000 0.175580
v -0.900000 0.100000 -0.000001
v -0.882707 0.100000 -0.175582
v -0.831491 0.100000 -0.344416
v -0.748322 0.100000 -0.500014
v -0.636395 0.100000 -0.636397
v -0.500012 0.100000 -0.748323
v -0.344414 0.100000 -0.831492
v -0.175580 0.100000 -0.882707
v 0.243863 0.600000 -1.225982
v -0.000000 0.600000 -1.250000
v 0.478354 0.600000 -1.154849
v 0.694463 0.600000 -1.039337
v 0.883883 0.600000 -0.883883
v 1.039337 0.600000 -0.694463
v 1.154849 0.600000 -0.478354
v 1.225982 0.600000 -0.243863
v 1.250000 0.600000 -0.000000
v 1.225982 0.600000 0.243863
v 1.154849 0.600000 0.478354
v 1.039337 0.600000 0.694463
v 0.883883 0.600000 0.883884
v 0.694463 0.600000 1.039337
v 0.478354 0.600000 1.154850
v 0.243863 0.600000 1.225982
v -0.000000 0.600000 1.250000
v -0.243863 0.600000 1.225981
v -0.478355 0.600000 1.154849
v -0.694463 0.600000 1.039337
v -0.883884 0.600000 0.883883
v -1.039338 0.600000 0.694462
v -1.154850 0.600000 0.478353
v -1.225982 0.600000 0.243862
v -1.250000 0.600000 -0.000001
v -1.225981 0.600000 -0.243864
v -1.154849 0.600000 -0.478356
v -1.039336 0.600000 -0.694464
v -0.883882 0.600000 -0.883884
v -0.694461 0.600000 -1.039338
v -0.478353 0.600000 -1.154850
v -0.243861 0.600000 -1.225982
v 0.219477 0.600000 -1.103383
v -0.000000 0.600000 -1.125000
v 0.430519 0.600000 -1.039364
v 0.625017 0.600000 -0.935403
v 0.795495 0.600000 -0.795495
v 0.935403 0.600000 -0.625016
v 1.039364 0.600000 -0.430519
v 1.103383 0.600000 -0.219477
v 1.125000 0.600000 -0.000000
v 1.103383 0.600000 0.219477
v 1.039364 0.600000 0.430519
v 0.935403 0.600000 0.625016
v 0.795495 0.600000 0.795495
v 0.625016 0.600000 0.935403
v 0.430519 0.600000 1.039364
v 0.219476 0.600000 1.103383
v -0.000000 0.600000 1.125000
v -0.219477 0.600000 1.103383
v -0.430519 0.600000 1.039364
v -0.625017 0.600000 0.935403
v -0.795496 0.600000 0.795495
v -0.935404 0.600000 0.625016
v -1.039365 0.600000 0.430518
v -1.103384 0.600000 0.219476
v -1.125000 0.600000 -0.000001
v -1.103383 0.600000 -0.219478
v -1.039364 0.600000 -0.430520
v -0.935403 0.600000 -0.625018
v -0.795494 0.600000 -0.795496
v -0.625015 0.600000 -0.935404
v -0.430517 0.600000 -1.039365
v -0.219475 0.600000 -1.103384
vt 0.3982 0.6650
vt 0.2042 0.7290
vt 0.2051 0.7287
vt 0.4062 0.7042
vt 0.2033 0.7292
vt 0.4063 0.7443
vt 0.2024 0.7292
vt 0.3986 0.7837
vt 0.2015 0.7290
vt 0.3834 0.8208
vt 0.2006 0.7286
vt 0.3612 0.8542
vt 0.1999 0.7280
vt 0.3328 0.8827
vt 0.1993 0.7274
vt 0.2995 0.9051
vt 0.1989 0.7266
vt 0.2624 0.9206
vt 0.1986 0.7257
vt 0.2231 0.9282
vt 0.1985 0.7248
vt 0.1829 0.9281
vt 0.1986 0.7238
vt 0.1437 0.9201
vt 0.1988 0.7229
vt 0.1067 0.9046
vt 0.1992 0.7221
vt 0.0735 0.8823
vt 0.1998 0.7214
vt 0.0453 0.8539
vt 0.2004 0.7207
vt 0.0232 0.8206
vt 0.2012 0.7202
vt 0.0079 0.7836
vt 0.2020 0.7199
vt 0.0002 0.7444
vt 0.2029 0.7197
vt 0.0002 0.7044
vt 0.2038 0.7197
vt 0.0081 0.6652
vt 0.2046 0.7199
vt 0.0234 0.6282
vt 0.2054 0.7202
vt 0.0457 0.5950
vt 0.2061 0.7207
vt 0.0740 0.5668
vt 0.2067 0.7213
vt 0.1072 0.5446
vt 0.2072 0.7220
vt 0.1440 0.5293
vt 0.2075 0.7229
vt 0.1832 0.5216
vt 0.2077 0.7239
vt 0.2230 0.5216
vt 0.2077 0.7249
vt 0.2622 0.5293
vt 0.2075 0.7258
vt 0.2991 0.5446
vt 0.2071 0.7267
vt 0.3323 0.5667
vt 0.2065 0.7275
vt 0.7406 0.2911
vt 0.8739 0.0274
vt 0.7307 0.2863
vt 0.3606 0.5949
vt 0.2059 0.7282
vt 0.3828 0.6281
vt 0.7509 0.6994
vt 0.6373 0.6387
vt 0.8117 0.5858
vt 0.6916 0.7065
vt 0.7877 0.8236
vt 0.7392 0.8634
vt 0.2113 0.2414
vt 0.5222 0.2864
vt 0.5121 0.3369
vt 0.7841 0.2902
vt 0.6095 0.0535
vt 0.6485 0.0274
vt 0.9129 0.0535
vt 0.7219 0.2796
vt 0.2519 0.3134
vt 0.2351 0.0003
vt 0.2864 0.0002
vt 0.6919 0.0094
vt 0.7735 0.2934
vt 0.9461 0.0867
vt 0.7146 0.2713
vt 0.2700 0.2079
vt 0.1847 0.5109
vt 0.2800 0.2108
vt 0.7624 0.2943
vt 0.7378 0.0002
vt 0.9723 0.1258
vt 0.7091 0.2617
vt 0.2078 0.2620
vt 0.2085 0.2515
vt 0.7846 0.0002
vt 0.7514 0.2938
vt 0.7056 0.2512
vt 0.9904 0.1692
vt 0.2726 0.3129
vt 0.2623 0.3142
vt 0.3125 0.2698
vt 0.0102 0.1849
vt 0.3100 0.2799
vt 0.9997 0.2153
vt 0.7043 0.2402
vt 0.2597 0.2072
vt 0.2350 0.5210
vt 0.9998 0.2624
vt 0.7051 0.2292
vt 0.2091 0.2724
vt 0.5222 0.2350
vt 0.7081 0.2185
vt 0.9908 0.3086
vt 0.1373 0.0302
vt 0.1847 0.0105
vt 0.3129 0.2594
vt 0.0002 0.2351
vt 0.7132 0.2086
vt 0.9729 0.3522
vt 0.3369 0.5113
vt 0.2864 0.5212
vt 0.9469 0.3914
vt 0.7201 0.1999
vt 0.2123 0.2824
vt 0.5121 0.1845
vt 0.9137 0.4248
vt 0.7286 0.1927
vt 0.2914 0.3044
vt 0.2824 0.3096
vt 0.3120 0.2490
vt 0.0002 0.2862
vt 0.8745 0.4511
vt 0.7383 0.1872
vt 0.2394 0.2117
vt 0.2493 0.2084
vt 0.8310 0.4692
vt 0.7489 0.1838
vt 0.6290 0.6019
vt 0.6104 0.5866
vt 0.6205 0.5812
vt 0.4663 0.5345
vt 0.4550 0.5557
vt 0.4478 0.5469
vt 0.4320 0.7072
vt 0.4550 0.7142
vt 0.4478 0.7230
vt 0.6290 0.6680
vt 0.6104 0.6832
vt 0.6181 0.6647
vt 0.5531 0.5259
vt 0.5301 0.5329
vt 0.5312 0.5216
vt 0.4067 0.6238
vt 0.4180 0.6450
vt 0.4067 0.6461
vt 0.5531 0.7439
vt 0.5301 0.7369
vt 0.5498 0.7330
vt 0.5993 0.5699
vt 0.6081 0.5627
vt 0.4408 0.5699
vt 0.4320 0.5627
vt 0.4663 0.7354
vt 0.4717 0.7253
vt 0.6221 0.6450
vt 0.6334 0.6461
vt 0.5100 0.5329
vt 0.5089 0.5216
vt 0.4219 0.6647
vt 0.4110 0.6680
vt 0.5923 0.7230
vt 0.5684 0.7253
vt 0.5851 0.7142
vt 0.5737 0.7354
vt 0.5851 0.5557
vt 0.5923 0.5469
vt 0.4296 0.5866
vt 0.4196 0.5812
vt 0.4870 0.7439
vt 0.4903 0.7330
vt 0.6221 0.6249
vt 0.6334 0.6238
vt 0.4903 0.5368
vt 0.4870 0.5259
vt 0.4296 0.6832
vt 0.4196 0.6886
vt 0.5993 0.7000
vt 0.6081 0.7072
vt 0.5684 0.5445
vt 0.5737 0.5345
vt 0.4110 0.6019
vt 0.4219 0.6052
vt 0.5100 0.7369
vt 0.5089 0.7483
vt 0.6181 0.6052
vt 0.4717 0.5445
vt 0.4408 0.7000
vt 0.6205 0.6886
vt 0.5498 0.5368
vt 0.4180 0.6249
vt 0.5312 0.7483
vt 0.8023 0.2779
vt 0.7938 0.2850
vt 0.1373 0.4912
vt 0.2893 0.2155
vt 0.8306 0.0094
vt 0.8092 0.2693
vt 0.5763 0.0867
vt 0.2418 0.3106
vt 0.3369 0.0101
vt 0.8143 0.2595
vt 0.5501 0.1258
vt 0.4924 0.3844
vt 0.2160 0.2320
vt 0.8173 0.2488
vt 0.5321 0.1692
vt 0.0946 0.4626
vt 0.2974 0.2220
vt 0.8182 0.2378
vt 0.5228 0.2153
vt 0.3844 0.0296
vt 0.2325 0.3059
vt 0.8168 0.2268
vt 0.5226 0.2624
vt 0.2225 0.2238
vt 0.4637 0.4271
vt 0.0299 0.1376
vt 0.3055 0.2893
vt 0.8134 0.2162
vt 0.5316 0.3086
vt 0.0584 0.4264
vt 0.3040 0.2299
vt 0.8079 0.2066
vt 0.5495 0.3521
vt 0.2243 0.2994
vt 0.4273 0.0580
vt 0.8006 0.1981
vt 0.5756 0.3914
vt 0.2304 0.2169
vt 0.4273 0.4633
vt 0.6479 0.4511
vt 0.6088 0.4248
vt 0.0298 0.3837
vt 0.3090 0.2391
vt 0.2992 0.2976
vt 0.0584 0.0950
vt 0.7918 0.1913
vt 0.6914 0.4692
vt 0.2175 0.2915
vt 0.4637 0.0943
vt 0.7711 0.1833
vt 0.7819 0.1863
vt 0.3844 0.4918
vt 0.7848 0.4785
vt 0.7376 0.4785
vt 0.0102 0.3364
vt 0.0947 0.0587
vt 0.7600 0.1824
vt 0.4924 0.1370
vt 0.6980 0.5251
vt 0.7155 0.5216
vt 0.7334 0.5216
vt 0.7509 0.5251
vt 0.7674 0.5319
vt 0.7823 0.5418
vt 0.7949 0.5545
vt 0.8048 0.5693
vt 0.8151 0.6033
vt 0.8151 0.6212
vt 0.8117 0.6387
vt 0.8048 0.6552
vt 0.7949 0.6701
vt 0.7823 0.6827
vt 0.7674 0.6926
vt 0.7334 0.7029
vt 0.7155 0.7029
vt 0.6980 0.6994
vt 0.6815 0.6926
vt 0.6667 0.6827
vt 0.6540 0.6701
vt 0.6441 0.6552
vt 0.6338 0.6212
vt 0.6338 0.6033
vt 0.6373 0.5858
vt 0.6441 0.5693
vt 0.6540 0.5545
vt 0.6667 0.5418
vt 0.6815 0.5319
vt 0.7234 0.8665
vt 0.7074 0.8665
vt 0.6916 0.8634
vt 0.6767 0.8573
vt 0.6634 0.8483
vt 0.6520 0.8370
vt 0.6431 0.8236
vt 0.6369 0.8087
vt 0.6338 0.7930
vt 0.6431 0.7463
vt 0.6338 0.7769
vt 0.6369 0.7611
vt 0.6520 0.7329
vt 0.6634 0.7215
vt 0.6767 0.7126
vt 0.7074 0.7033
vt 0.7234 0.7033
vt 0.7392 0.7065
vt 0.7540 0.7126
vt 0.7674 0.7215
vt 0.7788 0.7329
vt 0.7877 0.7463
vt 0.7939 0.7611
vt 0.7970 0.7769
vt 0.7970 0.7930
vt 0.7939 0.8087
vt 0.7788 0.8370
vt 0.7674 0.8483
vt 0.7540 0.8573
vn 0.0980 0.0000 -0.9952
vn 0.2903 0.0000 -0.9569
vn 0.4714 0.0000 -0.8819
vn 0.6344 0.0000 -0.7730
vn 0.7730 0.0000 -0.6344
vn 0.8819 0.0000 -0.4714
vn 0.9569 0.0000 -0.2903
vn 0.9952 0.0000 -0.0980
vn 0.9952 0.0000 0.0980
vn 0.9569 0.0000 0.2903
vn 0.8819 0.0000 0.4714
vn 0.7730 0.0000 0.6344
vn 0.6344 0.0000 0.7730
vn 0.4714 0.0000 0.8819
vn 0.2903 0.0000 0.9569
vn 0.0980 0.0000 0.9952
vn -0.0980 0.0000 0.9952
vn -0.2903 0.0000 0.9569
vn -0.4714 0.0000 0.8819
vn -0.6344 0.0000 0.7730
vn -0.7730 0.0000 0.6344
vn -0.8819 0.0000 0.4714
vn -0.9569 0.0000 0.2903
vn -0.9952 0.0000 0.0980
vn -0.9952 0.0000 -0.0980
vn -0.9569 0.0000 -0.2903
vn -0.8819 0.0000 -0.4714
vn -0.7730 0.0000 -0.6344
vn -0.6344 0.0000 -0.7730
vn -0.4714 0.0000 -0.8819
vn 0.2649 0.4087 0.8734
vn -0.2903 0.0000 -0.9569
vn -0.0980 0.0000 -0.9952
vn 0.0000 -1.0000 0.0000
vn 0.0000 1.0000 -0.0000
vn 0.0878 -0.4455 0.8910
vn -0.5790 0.4087 0.7055
vn 0.4302 0.4087 0.8049
vn 0.8567 -0.4455 -0.2599
vn -0.4302 0.4087 0.8049
vn 0.5790 0.4087 0.7055
vn -0.8910 -0.4455 0.0878
vn -0.2649 0.4087 0.8734
vn 0.7055 0.4087 0.5790
vn 0.2599 -0.4455 0.8567
vn -0.0895 0.4087 0.9083
vn 0.8049 0.4087 0.4302
vn 0.7896 -0.4455 -0.4220
vn -0.0878 -0.4455 -0.8910
vn 0.8734 0.4087 0.2649
vn -0.8567 -0.4455 0.2599
vn 0.9083 0.4087 0.0895
vn 0.4220 -0.4455 0.7896
vn 0.9083 0.4087 -0.0895
vn 0.6921 -0.4455 -0.5680
vn -0.2599 -0.4455 -0.8567
vn 0.8734 0.4087 -0.2649
vn -0.7896 -0.4455 0.4220
vn 0.8049 0.4087 -0.4302
vn 0.5680 -0.4455 0.6921
vn 0.7055 0.4087 -0.5790
vn 0.5680 -0.4455 -0.6921
vn -0.4220 -0.4455 -0.7896
vn 0.5790 0.4087 -0.7055
vn -0.6921 -0.4455 0.5680
vn 0.4302 0.4087 -0.8049
vn -0.7055 0.4087 0.5790
vn -0.8910 -0.4455 -0.0878
vn 0.0895 0.4087 0.9083
vn -0.8049 0.4087 0.4302
vn 0.8910 -0.4455 -0.0878
vn -0.8734 0.4087 0.2649
vn -0.0878 -0.4455 0.8910
vn -0.9083 0.4087 0.0895
vn -0.8567 -0.4455 -0.2599
vn -0.9083 0.4087 -0.0895
vn 0.8910 -0.4455 0.0878
vn -0.8734 0.4087 -0.2649
vn -0.2599 -0.4455 0.8567
vn 0.0878 -0.4455 -0.8910
vn -0.8049 0.4087 -0.4302
vn -0.7896 -0.4455 -0.4220
vn -0.7055 0.4087 -0.5790
vn 0.8567 -0.4455 0.2599
vn -0.5790 0.4087 -0.7055
vn -0.4220 -0.4455 0.7896
vn -0.4302 0.4087 -0.8049
vn -0.6921 -0.4455 -0.5680
vn 0.2599 -0.4455 -0.8567
vn -0.2649 0.4087 -0.8734
vn 0.7896 -0.4455 0.4220
vn -0.0895 0.4087 -0.9083
vn -0.5680 -0.4455 0.6921
vn 0.0895 0.4087 -0.9083
vn -0.5680 -0.4455 -0.6921
vn 0.4220 -0.4455 -0.7896
vn 0.2649 0.4087 -0.8734
vn 0.6921 -0.4455 0.5680
usemtl None
s off
f 2/1/1 3/2/1 1/3/1
f 4/4/2 5/5/2 3/2/2
f 6/6/3 7/7/3 5/5/3
f 8/8/4 9/9/4 7/7/4
f 10/10/5 11/11/5 9/9/5
f 12/12/6 13/13/6 11/11/6
f 14/14/7 15/15/7 13/13/7
f 16/16/8 17/17/8 15/15/8
f 18/18/9 19/19/9 17/17/9
f 20/20/10 21/21/10 19/19/10
f 22/22/11 23/23/11 21/21/11
f 24/24/12 25/25/12 23/23/12
f 26/26/13 27/27/13 25/25/13
f 28/28/14 29/29/14 27/27/14
f 30/30/15 31/31/15 29/29/15
f 32/32/16 33/33/16 31/31/16
f 34/34/17 35/35/17 33/33/17
f 36/36/18 37/37/18 35/35/18
f 38/38/19 39/39/19 37/37/19
f 40/40/20 41/41/20 39/39/20
f 42/42/21 43/43/21 41/41/21
f 44/44/22 45/45/22 43/43/22
f 46/46/23 47/47/23 45/45/23
f 48/48/24 49/49/24 47/47/24
f 50/50/25 51/51/25 49/49/25
f 52/52/26 53/53/26 51/51/26
f 54/54/27 55/55/27 53/53/27
f 56/56/28 57/57/28 55/55/28
f 58/58/29 59/59/29 57/57/29
f 60/60/30 61/61/30 59/59/30
f 96/62/31 159/63/31 95/64/31
f 62/65/32 63/66/32 61/61/32
f 64/67/33 1/3/33 63/66/33
f 31/68/34 47/69/34 15/70/34
f 83/71/35 71/72/35 67/73/35
f 34/74/36 112/75/36 113/76/36
f 68/77/37 133/78/37 132/79/37
f 95/64/38 158/80/38 94/81/38
f 16/82/39 103/83/39 104/84/39
f 68/77/40 131/85/40 67/86/40
f 94/81/41 157/87/41 93/88/41
f 48/89/42 121/90/42 50/91/42
f 65/92/43 131/85/43 129/93/43
f 93/88/44 156/94/44 92/95/44
f 30/96/45 112/75/45 32/97/45
f 65/92/46 130/98/46 66/99/46
f 91/100/47 156/94/47 155/101/47
f 12/102/48 103/83/48 14/103/48
f 64/104/49 98/105/49 2/106/49
f 91/100/50 154/107/50 90/108/50
f 46/109/51 120/110/51 48/89/51
f 90/108/52 153/111/52 89/112/52
f 28/113/53 111/114/53 30/96/53
f 88/115/54 153/111/54 152/116/54
f 12/102/55 101/117/55 102/118/55
f 62/119/56 128/120/56 64/104/56
f 87/121/57 152/116/57 151/122/57
f 46/109/58 118/123/58 119/124/58
f 87/121/59 150/125/59 86/126/59
f 26/127/60 110/128/60 28/113/60
f 86/126/61 149/129/61 85/130/61
f 8/131/62 101/117/62 10/132/62
f 60/133/63 127/134/63 62/119/63
f 85/130/64 148/135/64 84/136/64
f 42/137/65 118/123/65 44/138/65
f 84/136/66 147/139/66 83/140/66
f 104/141/35 137/142/35 105/143/35
f 113/144/35 146/145/35 114/146/35
f 122/147/35 155/148/35 123/149/35
f 101/150/35 132/151/35 133/152/35
f 109/153/35 142/154/35 110/155/35
f 118/156/35 151/157/35 119/158/35
f 128/159/35 159/160/35 160/161/35
f 105/143/35 138/162/35 106/163/35
f 114/146/35 147/164/35 115/165/35
f 124/166/35 155/148/35 156/167/35
f 101/150/35 134/168/35 102/169/35
f 110/155/35 143/170/35 111/171/35
f 119/158/35 152/172/35 120/173/35
f 97/174/35 130/175/35 129/176/35
f 128/159/35 130/175/35 98/177/35
f 106/163/35 139/178/35 107/179/35
f 115/165/35 148/180/35 116/181/35
f 125/182/35 156/167/35 157/183/35
f 102/169/35 135/184/35 103/185/35
f 111/171/35 144/186/35 112/187/35
f 120/173/35 153/188/35 121/189/35
f 97/174/35 131/190/35 99/191/35
f 107/179/35 140/192/35 108/193/35
f 117/194/35 148/180/35 149/195/35
f 125/182/35 158/196/35 126/197/35
f 103/185/35 136/198/35 104/141/35
f 112/187/35 145/199/35 113/144/35
f 122/147/35 153/188/35 154/200/35
f 100/201/35 131/190/35 132/151/35
f 108/193/35 141/202/35 109/153/35
f 118/156/35 149/195/35 150/203/35
f 126/197/35 159/160/35 127/204/35
f 70/205/67 133/78/67 69/206/67
f 50/91/68 122/207/68 52/208/68
f 66/99/69 160/209/69 96/62/69
f 71/210/70 134/211/70 70/205/70
f 18/212/71 104/84/71 105/213/71
f 72/214/72 135/215/72 71/210/72
f 34/74/73 114/216/73 36/217/73
f 73/218/74 136/219/74 72/214/74
f 52/208/75 123/220/75 54/221/75
f 74/222/76 137/223/76 73/218/76
f 18/212/77 106/224/77 20/225/77
f 75/226/78 138/227/78 74/222/78
f 38/228/79 114/216/79 115/229/79
f 2/106/80 97/230/80 4/231/80
f 76/232/81 139/233/81 75/226/81
f 54/221/82 124/234/82 56/235/82
f 77/236/83 140/237/83 76/232/83
f 22/238/84 106/224/84 107/239/84
f 78/240/85 141/241/85 77/236/85
f 40/242/86 115/229/86 116/243/86
f 78/240/87 143/244/87 142/245/87
f 56/235/88 125/246/88 58/247/88
f 6/248/89 97/230/89 99/249/89
f 79/250/90 144/251/90 143/244/90
f 24/252/91 107/239/91 108/253/91
f 81/254/92 144/251/92 80/255/92
f 40/242/93 117/256/93 42/137/93
f 81/254/94 146/257/94 145/258/94
f 58/247/95 126/259/95 60/133/95
f 6/248/96 100/260/96 8/131/96
f 83/140/97 146/257/97 82/261/97
f 26/127/98 108/253/98 109/262/98
f 2/1/1 4/4/1 3/2/1
f 4/4/2 6/6/2 5/5/2
f 6/6/3 8/8/3 7/7/3
f 8/8/4 10/10/4 9/9/4
f 10/10/5 12/12/5 11/11/5
f 12/12/6 14/14/6 13/13/6
f 14/14/7 16/16/7 15/15/7
f 16/16/8 18/18/8 17/17/8
f 18/18/9 20/20/9 19/19/9
f 20/20/10 22/22/10 21/21/10
f 22/22/11 24/24/11 23/23/11
f 24/24/12 26/26/12 25/25/12
f 26/26/13 28/28/13 27/27/13
f 28/28/14 30/30/14 29/29/14
f 30/30/15 32/32/15 31/31/15
f 32/32/16 34/34/16 33/33/16
f 34/34/17 36/36/17 35/35/17
f 36/36/18 38/38/18 37/37/18
f 38/38/19 40/40/19 39/39/19
f 40/40/20 42/42/20 41/41/20
f 42/42/21 44/44/21 43/43/21
f 44/44/22 46/46/22 45/45/22
f 46/46/23 48/48/23 47/47/23
f 48/48/24 50/50/24 49/49/24
f 50/50/25 52/52/25 51/51/25
f 52/52/26 54/54/26 53/53/26
f 54/54/27 56/56/27 55/55/27
f 56/56/28 58/58/28 57/57/28
f 58/58/29 60/60/29 59/59/29
f 60/60/30 62/65/30 61/61/30
f 96/62/31 160/209/31 159/63/31
f 62/65/32 64/67/32 63/66/32
f 64/67/33 2/1/33 1/3/33
f 63/263/34 1/264/34 3/265/34
f 3/265/34 5/266/34 7/267/34
f 7/267/34 9/268/34 11/269/34
f 11/269/34 13/270/34 7/267/34
f 15/70/34 17/271/34 19/272/34
f 19/272/34 21/273/34 15/70/34
f 23/274/34 25/275/34 31/68/34
f 27/276/34 29/277/34 31/68/34
f 31/68/34 33/278/34 35/279/34
f 35/279/34 37/280/34 39/281/34
f 39/281/34 41/282/34 43/283/34
f 43/283/34 45/284/34 47/69/34
f 47/69/34 49/285/34 51/286/34
f 51/286/34 53/287/34 55/288/34
f 55/288/34 57/289/34 63/263/34
f 59/290/34 61/291/34 63/263/34
f 63/263/34 3/265/34 15/70/34
f 7/267/34 13/270/34 15/70/34
f 15/70/34 21/273/34 23/274/34
f 25/275/34 27/276/34 31/68/34
f 31/68/34 35/279/34 47/69/34
f 39/281/34 43/283/34 47/69/34
f 47/69/34 51/286/34 63/263/34
f 57/289/34 59/290/34 63/263/34
f 3/265/34 7/267/34 15/70/34
f 15/70/34 23/274/34 31/68/34
f 35/279/34 39/281/34 47/69/34
f 51/286/34 55/288/34 63/263/34
f 63/263/34 15/70/34 47/69/34
f 67/73/35 65/292/35 66/293/35
f 66/293/35 96/294/35 67/73/35
f 95/295/35 94/296/35 93/297/35
f 93/297/35 92/298/35 91/299/35
f 91/299/35 90/300/35 87/301/35
f 89/302/35 88/303/35 87/301/35
f 87/301/35 86/304/35 83/71/35
f 85/305/35 84/306/35 83/71/35
f 83/71/35 82/307/35 81/308/35
f 81/308/35 80/309/35 79/310/35
f 79/310/35 78/311/35 77/312/35
f 77/312/35 76/313/35 75/314/35
f 75/314/35 74/315/35 73/316/35
f 73/316/35 72/317/35 75/314/35
f 71/72/35 70/318/35 69/319/35
f 69/319/35 68/320/35 71/72/35
f 67/73/35 96/294/35 95/295/35
f 95/295/35 93/297/35 67/73/35
f 90/300/35 89/302/35 87/301/35
f 86/304/35 85/305/35 83/71/35
f 83/71/35 81/308/35 75/314/35
f 79/310/35 77/312/35 75/314/35
f 75/314/35 72/317/35 71/72/35
f 71/72/35 68/320/35 67/73/35
f 67/73/35 93/297/35 91/299/35
f 91/299/35 87/301/35 67/73/35
f 81/308/35 79/310/35 75/314/35
f 75/314/35 71/72/35 83/71/35
f 67/73/35 87/301/35 83/71/35
f 34/74/36 32/97/36 112/75/36
f 68/77/37 69/206/37 133/78/37
f 95/64/38 159/63/38 158/80/38
f 16/82/39 14/103/39 103/83/39
f 68/77/40 132/79/40 131/85/40
f 94/81/41 158/80/41 157/87/41
f 48/89/42 120/110/42 121/90/42
f 65/92/43 67/86/43 131/85/43
f 93/88/44 157/87/44 156/94/44
f 30/96/45 111/114/45 112/75/45
f 65/92/46 129/93/46 130/98/46
f 91/100/47 92/95/47 156/94/47
f 12/102/48 102/118/48 103/83/48
f 64/104/49 128/120/49 98/105/49
f 91/100/50 155/101/50 154/107/50
f 46/109/51 119/124/51 120/110/51
f 90/108/52 154/107/52 153/111/52
f 28/113/53 110/128/53 111/114/53
f 88/115/54 89/112/54 153/111/54
f 12/102/55 10/132/55 101/117/55
f 62/119/56 127/134/56 128/120/56
f 87/121/57 88/115/57 152/116/57
f 46/109/58 44/138/58 118/123/58
f 87/121/59 151/122/59 150/125/59
f 26/127/60 109/262/60 110/128/60
f 86/126/61 150/125/61 149/129/61
f 8/131/62 100/260/62 101/117/62
f 60/133/63 126/259/63 127/134/63
f 85/130/64 149/129/64 148/135/64
f 42/137/65 117/256/65 118/123/65
f 84/136/66 148/135/66 147/139/66
f 104/141/35 136/198/35 137/142/35
f 113/144/35 145/199/35 146/145/35
f 122/147/35 154/200/35 155/148/35
f 101/150/35 100/201/35 132/151/35
f 109/153/35 141/202/35 142/154/35
f 118/156/35 150/203/35 151/157/35
f 128/159/35 127/204/35 159/160/35
f 105/143/35 137/142/35 138/162/35
f 114/146/35 146/145/35 147/164/35
f 124/166/35 123/149/35 155/148/35
f 101/150/35 133/152/35 134/168/35
f 110/155/35 142/154/35 143/170/35
f 119/158/35 151/157/35 152/172/35
f 97/174/35 98/177/35 130/175/35
f 128/159/35 160/161/35 130/175/35
f 106/163/35 138/162/35 139/178/35
f 115/165/35 147/164/35 148/180/35
f 125/182/35 124/166/35 156/167/35
f 102/169/35 134/168/35 135/184/35
f 111/171/35 143/170/35 144/186/35
f 120/173/35 152/172/35 153/188/35
f 97/174/35 129/176/35 131/190/35
f 107/179/35 139/178/35 140/192/35
f 117/194/35 116/181/35 148/180/35
f 125/182/35 157/183/35 158/196/35
f 103/185/35 135/184/35 136/198/35
f 112/187/35 144/186/35 145/199/35
f 122/147/35 121/189/35 153/188/35
f 100/201/35 99/191/35 131/190/35
f 108/193/35 140/192/35 141/202/35
f 118/156/35 117/194/35 149/195/35
f 126/197/35 158/196/35 159/160/35
f 70/205/67 134/211/67 133/78/67
f 50/91/68 121/90/68 122/207/68
f 66/99/69 130/98/69 160/209/69
f 71/210/70 135/215/70 134/211/70
f 18/212/71 16/82/71 104/84/71
f 72/214/72 136/219/72 135/215/72
f 34/74/73 113/76/73 114/216/73
f 73/218/74 137/223/74 136/219/74
f 52/208/75 122/207/75 123/220/75
f 74/222/76 138/227/76 137/223/76
f 18/212/77 105/213/77 106/224/77
f 75/226/78 139/233/78 138/227/78
f 38/228/79 36/217/79 114/216/79
f 2/106/80 98/105/80 97/230/80
f 76/232/81 140/237/81 139/233/81
f 54/221/82 123/220/82 124/234/82
f 77/236/83 141/241/83 140/237/83
f 22/238/84 20/225/84 106/224/84
f 78/240/85 142/245/85 141/241/85
f 40/242/86 38/228/86 115/229/86
f 78/240/87 79/250/87 143/244/87
f 56/235/88 124/234/88 125/246/88
f 6/248/89 4/231/89 97/230/89
f 79/250/90 80/255/90 144/251/90
f 24/252/91 22/238/91 107/239/91
f 81/254/92 145/258/92 144/251/92
f 40/242/93 116/243/93 117/256/93
f 81/254/94 82/261/94 146/257/94
f 58/247/95 125/246/95 126/259/95
f 6/248/96 99/249/96 100/260/96
f 83/140/97 147/139/97 146/257/97
f 26/127/98 24/252/98 108/253/98
