# Blender v2.78 (sub 0) OBJ File: 'usb.blend'
# www.blender.org
mtllib usb.mtl
o Cube_Cube.001
v -0.250000 -0.500000 1.000000
v -0.250000 0.500000 1.000000
v -0.250000 -0.500000 -1.000000
v -0.250000 0.500000 -1.000000
v 0.250000 -0.500000 1.000000
v 0.250000 0.500000 1.000000
v 0.250000 -0.500000 -1.000000
v 0.250000 0.500000 -1.000000
v 0.000000 -0.500000 -1.000000
v 0.000000 0.500000 -1.000000
v 0.000000 -0.500000 1.000000
v 0.000000 0.500000 1.000000
v -0.250000 -0.500000 0.500000
v -0.250000 0.500000 0.500000
v 0.000000 0.500000 0.500000
v 0.000000 -0.500000 0.500000
v -0.250000 0.000000 1.000000
v -0.250000 0.000000 0.500000
v -0.250000 0.500000 0.750000
v -0.250000 -0.500000 0.750000
v -0.250000 0.000000 0.750000
v -0.250000 0.250000 1.000000
v -0.250000 0.250000 0.500000
v -0.250000 0.500000 0.625000
v -0.250000 -0.500000 0.875000
v -0.250000 -0.250000 1.000000
v -0.250000 -0.250000 0.500000
v -0.250000 0.500000 0.875000
v -0.250000 -0.500000 0.625000
v -0.250000 0.000000 0.625000
v -0.250000 0.000000 0.875000
v -0.250000 0.250000 0.750000
v -0.250000 -0.250000 0.750000
v -0.250000 -0.250000 0.875000
v -0.250000 0.250000 0.875000
v -0.250000 0.250000 0.625000
v -0.250000 -0.250000 0.625000
v -0.250000 -0.500000 0.687500
v -0.250000 0.375000 0.750000
v -0.250000 -0.125000 0.750000
v -0.250000 0.500000 0.687500
v -0.250000 0.000000 0.687500
v -0.250000 0.125000 0.750000
v -0.250000 -0.375000 0.750000
v -0.250000 0.375000 0.625000
v -0.250000 0.125000 0.625000
v -0.250000 -0.250000 0.687500
v -0.250000 -0.125000 0.625000
v -0.250000 -0.375000 0.625000
v -0.250000 -0.375000 0.687500
v -0.250000 0.125000 0.687500
v -0.250000 0.375000 0.687500
v -0.250000 -0.500000 0.500000
v -0.250000 0.500000 0.500000
vt 0.3969 0.8458
vt 0.3969 0.4837
vt 0.3969 0.4837
vt 0.3969 0.8458
vt 0.5779 0.4837
vt 0.5779 0.8458
vt 0.7590 0.8458
vt 0.7590 0.4837
vt 0.3969 0.4837
vt 0.3969 0.8458
vt 0.0347 0.8458
vt 0.0347 0.4837
vt 0.5779 0.4837
vt 0.3969 0.4837
vt 0.3969 0.5063
vt 0.3969 0.5289
vt 0.3969 0.5402
vt 0.3969 0.5516
vt 0.3969 0.5742
vt 0.5779 0.5742
vt 0.7590 0.1215
vt 0.5779 0.1215
vt 0.5779 0.4837
vt 0.3969 0.4837
vt 0.3969 0.1215
vt 0.5779 0.1215
vt 0.3969 0.4837
vt 0.2158 0.4837
vt 0.2158 0.1215
vt 0.3969 0.1215
vt 0.3969 0.1215
vt 0.9913 0.5799
vt 0.9913 0.9410
vt 0.8107 0.9410
vt 0.8107 0.5799
vt 0.5779 0.4837
vt 0.5779 0.8458
vt 0.3969 0.8458
vt 0.3969 0.7553
vt 0.3969 0.6647
vt 0.3969 0.5742
vt 0.3969 0.4837
vt 0.8336 0.5814
vt 0.8336 0.9394
vt 0.9231 0.9394
vt 0.9231 0.5814
vt 0.3969 0.4837
vt 0.5779 0.4837
vt 0.5779 0.5742
vt 0.3969 0.5742
vt 0.3969 0.5516
vt 0.3969 0.5402
vt 0.3969 0.5289
vt 0.3969 0.5063
vt 0.9465 0.7726
vt 0.9734 0.7726
vt 0.9734 0.6650
vt 0.9465 0.6650
vt 0.9465 0.7188
vt 0.9465 0.9879
vt 0.9734 0.9879
vt 0.9734 0.8803
vt 0.9465 0.8803
vt 0.9465 0.9341
vt 0.8927 0.9879
vt 0.9196 0.9879
vt 0.9196 0.9341
vt 0.9196 0.8803
vt 0.8927 0.8803
vt 0.8927 0.7726
vt 0.9196 0.7726
vt 0.9196 0.7188
vt 0.9196 0.6650
vt 0.8927 0.6650
vt 0.9196 0.8264
vt 0.8658 0.8803
vt 0.8658 0.7726
vt 0.8658 0.6650
vt 0.8927 0.6650
vt 0.9196 0.6650
vt 0.9196 0.6111
vt 0.9196 0.5573
vt 0.8927 0.5573
vt 0.8658 0.6650
vt 0.8658 0.5573
vt 0.8658 0.9879
vt 0.9465 0.6650
vt 0.9734 0.6650
vt 0.9734 0.5573
vt 0.9465 0.5573
vt 0.9465 0.6111
vt 0.9330 0.9341
vt 0.9330 0.8803
vt 0.9465 0.8264
vt 0.9330 0.7188
vt 0.9330 0.6650
vt 0.9330 0.7726
vt 0.9330 0.6650
vt 0.9330 0.6111
vn -1.0000 0.0000 0.0000
vn 0.0000 0.0000 -1.0000
vn 1.0000 0.0000 0.0000
vn 0.0000 -1.0000 0.0000
vn 0.0000 1.0000 0.0000
vn 0.0000 0.0000 1.0000
usemtl None
s off
f 4/1/1 3/2/1 53/3/1 54/4/1
f 9/5/2 10/6/2 8/7/2 7/8/2
f 7/9/3 8/10/3 6/11/3 5/12/3
f 12/13/4 2/14/4 28/15/4 19/16/4 41/17/4 24/18/4 14/19/4 15/20/4
f 9/5/4 7/8/4 5/21/4 11/22/4
f 10/23/5 4/24/5 2/25/5 12/26/5
f 8/27/5 10/28/5 12/29/5 6/30/5
f 3/2/4 9/5/4 11/22/4 1/31/4
f 5/32/6 6/33/6 12/34/6 11/35/6
f 3/2/2 4/1/2 10/6/2 9/5/2
f 16/36/6 15/37/6 14/38/6 23/39/6 18/40/6 27/41/6 13/42/6
f 11/43/1 12/44/1 15/45/1 16/46/1
f 1/47/5 11/48/5 16/49/5 13/50/5 29/51/5 38/52/5 20/53/5 25/54/5
f 37/55/1 27/56/1 13/57/1 29/58/1 49/59/1
f 36/60/1 23/61/1 18/62/1 30/63/1 46/64/1
f 35/65/1 32/66/1 43/67/1 21/68/1 31/69/1
f 34/70/1 33/71/1 44/72/1 20/73/1 25/74/1
f 31/69/1 21/68/1 40/75/1 33/71/1 34/70/1
f 17/76/1 31/69/1 34/70/1 26/77/1
f 26/77/1 34/70/1 25/74/1 1/78/1
f 28/79/1 19/80/1 39/81/1 32/82/1 35/83/1
f 2/84/1 28/79/1 35/83/1 22/85/1
f 22/86/1 35/65/1 31/69/1 17/76/1
f 24/87/1 14/88/1 23/89/1 36/90/1 45/91/1
f 51/92/1 46/64/1 30/63/1 42/93/1
f 30/63/1 18/62/1 27/56/1 37/55/1 48/94/1
f 50/95/1 49/59/1 29/58/1 38/96/1
f 47/97/1 37/55/1 49/59/1 50/95/1
f 33/71/1 47/97/1 50/95/1 44/72/1
f 44/72/1 50/95/1 38/96/1 20/73/1
f 43/67/1 51/92/1 42/93/1 21/68/1
f 41/98/1 24/87/1 45/91/1 52/99/1
f 19/80/1 41/98/1 52/99/1 39/81/1
